{
	"asset":{
		"generator":"Khronos glTF Blender I/O v4.0.43",
		"version":"2.0"
	},
	"scene":0,
	"scenes":[
		{
			"name":"Scene",
			"nodes":[
				0
			]
		}
	],
	"nodes":[
		{
			"mesh":0,
			"name":"Cube"
		}
	],
	"materials":[
		{
			"doubleSided":true,
			"name":"Material.001",
			"pbrMetallicRoughness":{
				"baseColorFactor":[
					0.800000011920929,
					0.800000011920929,
					0.800000011920929,
					1
				],
				"metallicFactor":0,
				"roughnessFactor":0.5
			}
		}
	],
	"meshes":[
		{
			"name":"Cube.001",
			"primitives":[
				{
					"attributes":{
						"POSITION":0,
						"NORMAL":1,
						"TEXCOORD_0":2
					},
					"indices":3,
					"material":0
				}
			]
		}
	],
	"accessors":[
		{
			"bufferView":0,
			"componentType":5126,
			"count":1632,
			"max":[
				0.9135211110115051,
				4.070265769958496,
				0.9135211706161499
			],
			"min":[
				-0.9135211110115051,
				0.0026670098304748535,
				-0.9135211110115051
			],
			"type":"VEC3"
		},
		{
			"bufferView":1,
			"componentType":5126,
			"count":1632,
			"type":"VEC3"
		},
		{
			"bufferView":2,
			"componentType":5126,
			"count":1632,
			"type":"VEC2"
		},
		{
			"bufferView":3,
			"componentType":5123,
			"count":1632,
			"type":"SCALAR"
		}
	],
	"bufferViews":[
		{
			"buffer":0,
			"byteLength":19584,
			"byteOffset":0,
			"target":34962
		},
		{
			"buffer":0,
			"byteLength":19584,
			"byteOffset":19584,
			"target":34962
		},
		{
			"buffer":0,
			"byteLength":13056,
			"byteOffset":39168,
			"target":34962
		},
		{
			"buffer":0,
			"byteLength":3264,
			"byteOffset":52224,
			"target":34963
		}
	],
	"buffers":[
		{
			"byteLength":55488,
			"uri":"widget.bin"
		}
	]
}
